<svg width="56" height="51" viewBox="0 0 56 51" fill="none" xmlns="http://www.w3.org/2000/svg">
<path d="M41.8752 0.619074C39.9351 0.360845 35.8476 0.395295 32.8602 2.04297C29.8727 3.69064 28.579 3.51457 27.5049 3.628C22.98 3.14692 22.9659 2.18897 20.8054 1.57541C18.6449 0.961847 16.1343 0.927204 14.773 1.01901C12.9805 1.04546 8.46117 1.92969 4.72371 5.25503C0.0518786 9.41171 0.35585 15.4312 0.637602 19.9451C0.863004 23.5562 3.73067 30.2981 5.13634 33.2176C6.98065 36.7044 11.6278 44.4815 15.4617 47.6951C20.2542 51.7121 27.7385 48.5896 28.1654 48.3682C28.5922 48.1467 31.1985 49.8294 33.995 49.7882L35.9311 49.7596C38.7178 49.073 40.8434 47.3205 41.9028 46.2292C42.9622 45.1378 49.0957 37.9476 52.4132 29.508C55.7308 21.0684 56.6187 11.2448 52.0736 6.49261C47.5285 1.74046 43.3809 0.596856 41.8752 0.619074Z" fill="white" stroke="white"/>
<path d="M21.5719 27.1309C21.2436 26.2016 23.5267 23.9682 24.7094 22.9677C24.7342 23.571 24.6771 25.045 24.2497 26.1142C23.8223 27.1833 23.4791 27.5812 23.3609 27.6465C22.9014 27.8618 21.9003 28.0602 21.5719 27.1309Z" fill="#3F2C2C" stroke="#3F2C2C"/>
<path d="M33.8901 26.2216C33.98 25.2402 31.2181 23.6362 29.8259 22.9569C29.95 23.5479 30.3676 24.9626 31.0446 25.894C31.7216 26.8254 32.152 27.1267 32.2827 27.161C32.781 27.2568 33.8001 27.2031 33.8901 26.2216Z" fill="#3F2C2C" stroke="#3F2C2C"/>
</svg>
