<svg width="90" height="85" viewBox="0 0 90 85" fill="none" xmlns="http://www.w3.org/2000/svg">
<path d="M89.1182 0.760742C87.985 7.23186 86.7338 13.9937 85.3262 20.0156C83.9208 26.0277 82.3513 31.3423 80.5732 34.8984C79.6623 36.7202 78.473 38.0496 77.0371 38.9639C75.6039 39.8764 73.9511 40.3584 72.1357 40.5273C68.6029 40.856 64.3849 40.0019 59.8018 38.7412C55.8808 43.3621 53.5245 47.3371 52.0566 51.6084C50.586 55.888 49.9962 60.4941 49.6436 66.3994C55.1762 68.2989 60.5207 72.496 64.2812 78.4795C68.7121 75.6292 71.6379 75.0974 73.7705 76.3369C74.8472 76.9628 75.6436 78.0024 76.3066 79.2354C76.9698 80.4686 77.5272 81.9488 78.0957 83.5029L78.3408 84.1748H12.3496L12.6709 83.4688C14.6109 79.197 16.6813 76.6832 19.4023 75.2139C22.0434 73.7878 25.2335 73.3849 29.334 73.1895C31.6676 69.2668 34.9442 66.8806 38.626 65.8516V65.6748H39.127C38.7384 62.3334 38.1551 59.4013 37.1953 56.6084C35.7274 52.3371 33.3712 48.3621 29.4502 43.7412C24.8671 45.0019 20.649 45.856 17.1162 45.5273C15.3008 45.3584 13.6481 44.8764 12.2148 43.9639C10.7789 43.0496 9.5896 41.7202 8.67871 39.8984C6.90064 36.3423 5.33112 31.0277 3.92578 25.0156C2.51815 18.9937 1.2669 12.2319 0.133789 5.76074L0 5L0.749023 5.19043C12.9703 8.29279 20.7467 10.6745 25.8496 12.7246C30.9538 14.7752 33.4308 16.512 35.0059 18.3496C35.8339 19.3158 36.3537 20.6503 36.6543 22.2061C36.9557 23.7664 37.0438 25.5882 36.9766 27.5684C36.8443 31.4648 36.1088 36.0366 35.1611 40.5557C39.9226 46.9131 42.2989 51.9649 44.0137 58.1016C45.8836 49.4806 48.1025 43.5512 54.0908 35.5557C53.1432 31.0366 52.4077 26.4648 52.2754 22.5684C52.2082 20.5882 52.2962 18.7664 52.5977 17.2061C52.8982 15.6503 53.4181 14.3158 54.2461 13.3496C55.8212 11.512 58.2981 9.77524 63.4023 7.72461C68.5053 5.67452 76.2816 3.29279 88.5029 0.19043L89.252 0L89.1182 0.760742Z" fill="white"/>
</svg>
