<svg width="91" height="90" viewBox="0 0 91 90" fill="none" xmlns="http://www.w3.org/2000/svg">
<path d="M76.7013 21.8979C76.7013 21.8979 78.2154 15.9536 76.7013 14.0017C75.1872 12.0498 71.1631 12.955 67.8839 14.0017C65.0359 14.9108 62.8073 16.5746 61.4713 18.1716C60.1353 19.7686 48.4679 36.6258 48.4679 36.6258L40.9866 30.2378C40.9866 30.2378 45.1724 25.9791 46.5085 24.116C47.8447 22.2528 47.132 19.7686 47.132 19.7686C47.132 19.7686 44.6384 19.5912 43.1241 20.7446C41.6098 21.8979 36.5334 26.4228 36.5334 26.4228C36.6539 26.5215 7.73282 1.63957 5.6281 0.249729C3.52337 -1.14011 -0.990008 3.64533 0.195183 5.39561C1.38037 7.14589 28.037 35.1114 27.5379 35.2063C27.5379 35.2063 24.1524 39.1717 23.4409 40.2634C22.7295 41.3551 26.7219 44.1654 26.8254 44.0785C26.9288 43.9915 31.7239 39.7311 31.7239 39.7311L38.6709 47.5387L28.0723 58.3628L11.8626 53.483C11.8626 53.483 5.80623 56.1447 8.83441 57.8304C11.8626 59.5162 23.4409 64.662 23.4409 64.662C24.8253 65.3586 25.3752 65.9511 26.1128 67.235C26.1128 67.235 32.9708 81.2531 33.7724 81.6967C34.5739 82.1403 35.3373 81.8284 37.5131 78.2365L32.3473 62.2665L43.1241 51.5312L50.6945 58.8951C50.6945 58.8951 46.4837 63.5203 46.5085 63.7748C46.5334 64.0293 49.7432 67.7426 50.6945 67.235C51.6459 66.7273 55.5931 62.9763 55.5931 62.9763C56.0763 62.6244 81.994 88.4425 85.4296 89.4155C88.8651 90.3885 91.8606 86.0243 90.7734 84.5358C89.6862 83.0473 63.9004 55.0485 64.6776 53.9267C64.6776 53.9267 69.8433 48.1597 70.5558 46.7402C71.2684 45.3206 70.5558 43.3687 70.5558 43.3687C70.5558 43.3687 67.973 42.9251 66.7261 44.0785C65.4792 45.2319 60.5807 49.4905 60.5807 49.4905L54.168 42.2153C54.168 42.2153 72.4262 29.9716 74.1184 27.931C75.8106 25.8904 76.7013 21.8979 76.7013 21.8979Z" fill="white"/>
</svg>
