<svg width="37" height="32" viewBox="0 0 37 32" fill="none" xmlns="http://www.w3.org/2000/svg">
<path d="M35.6774 6.18454L32.7165 1.00299C32.4015 0.451719 31.6579 0.330756 31.1849 0.754389C23.2558 7.857 19.0986 12.4703 13.8055 20.3787C13.4466 20.9149 12.6808 20.984 12.2378 20.5149L5.45249 13.3304C5.01611 12.8684 4.26505 12.9253 3.90329 13.4479L0.678026 18.1066C0.362356 18.5625 0.47978 19.1884 0.933104 19.5079C5.61669 22.8084 8.44529 25.7086 12.7576 30.9058C13.1828 31.4183 13.9819 31.385 14.3607 30.8373C21.7291 20.1824 26.4808 14.5913 35.4268 7.47044C35.8146 7.16175 35.9234 6.6149 35.6774 6.18454Z" fill="white" stroke="white"/>
</svg>
